<svg id="Слой_2" data-name="Слой 2" xmlns="http://www.w3.org/2000/svg" viewBox="0 0 599.84 439.81"><defs><style>.cls-1,.cls-2{fill:#d86680;}.cls-2{font-size:69.35px;font-family:Unbounded-Bold, Unbounded;font-weight:700;}.cls-3{letter-spacing:-0.01em;}.cls-4{letter-spacing:-0.03em;}</style></defs><title>logo фемфит про</title><path class="cls-1" d="M617.8,190.23c-1.66,7.52-2.9,15.17-5.06,22.54-7.62,26.06-20.51,49.38-37.53,70.47L573,286l3.76,1.67c10.54,4.77,21.14,9.44,31.61,14.36,6.23,2.94,6.51,7.85.79,11.52-6.5,4.18-13.09,8.22-19.7,12.23-3.77,2.28-7,1.69-8.77-1.38s-.68-6.05,3.07-8.35,7.8-4.74,12.7-7.7c-9.81-4.14-18.73-7.8-27.56-11.68-3-1.31-4.91-1-7.34,1.5-21.54,22.26-48.5,34-78.48,39.48-10.34,1.88-20.83,3-31.46,5.09,5.78,1.11,11.51,2.6,17.34,3.27,30.88,3.55,59.88-3.53,87.87-16,1-.46,2-.94,3.07-1.37,3.81-1.57,6.93-.67,8.3,2.38s.07,6.32-3.62,7.82c-9.67,3.94-19.28,8.16-29.21,11.33-22.21,7.09-45,9.93-68.27,7.08a111.17,111.17,0,0,1-38.65-12.06,5.66,5.66,0,0,0-4.58,0C406.06,354.55,387,358.4,367,358.24c-36.59-.29-69.49-12.79-100.75-30.59-7.58-4.31-14.89-9.09-22.34-13.64-2.51-1.53-5-3.16-4.72-6.56.24-3.19,2.68-4.57,5.26-5.73q16.18-7.28,32.34-14.59c.78-.35,1.55-.72,2.14-1-6-8.69-11.9-17.27-17.8-25.87a19.45,19.45,0,0,1-1.35-2.23c-1.59-3.13-.84-6.2,1.87-7.83s5.76-.9,7.78,2.05c3.93,5.77,7.66,11.67,11.68,17.38,23.43,33.26,55.59,52.12,95.7,57.67,10.84,1.5,21.74,2.62,32.61,3.91l1.12-1.65a18.41,18.41,0,0,1-3.48-2.05c-11.81-11-22.65-22.88-31.2-36.64a8.88,8.88,0,0,1-1.28-6.16c1.19-4.53,6.71-5.17,9.69-1.29,2.2,2.86,3.82,6.2,6.22,8.87,9.06,10.11,18.33,20,27.54,30a14.39,14.39,0,0,0,1.84,1.34c-2.29-37.94-16.21-68.73-49.71-89.39a81.15,81.15,0,0,0,2.44,22c.4,1.7,1,3.36,1.34,5.06.71,3.23-.72,5.88-3.59,6.84-3.06,1-6.28-.29-7-3.71-1.76-8-3.16-16.09-4.36-24.19a40.53,40.53,0,0,1,0-9.72c.25-2.62-.62-4-2.92-5.26a280.42,280.42,0,0,0-71.21-27.5c-12.43-2.95-25.1-4.9-38.74-7.51,1.13,5.54,1.67,9.95,3,14.13,2.51,8.07,5.43,16,8.2,24,.32.94.81,1.82,1.17,2.75,1.37,3.55.39,6.47-2.63,7.88s-6.09.22-7.64-3.23c-6.75-15.09-11.78-30.69-13.47-47.22-.75-7.36,1.18-9.28,8.47-8.92,20.29,1,40,5.29,59.35,11.06,1.9.57,3.81,1.11,5.83,1.7.86-8,1.07-16.06,2.69-23.78,2.21-10.56,5.29-20.95,8.42-31.29,1.51-5,4.45-5.93,9.36-4,15.6,6.19,30,14.59,43.74,24.15,1.63,1.13,3.23,2.28,4.9,3.45,4.55-7.91,8.81-15.76,13.48-23.35a174.74,174.74,0,0,1,29.92-36.74c4.16-3.86,6.52-3.89,10.57,0,2.71,2.59,5.37,5.23,7.94,7.94,3,3.21,3.17,6.41.52,8.86s-5.84,1.89-8.83-1.24c-1.54-1.6-3-3.28-5.21-5.7-6.88,8.51-13.84,16.18-19.75,24.58-17.26,24.56-29.28,51.44-34.35,81.23-.54,3.17-.09,5.1,2.95,7,24.89,15.43,42.54,36.6,50.74,65.09.15.54.52,1,.38.75,4.5-9.45,8.7-19.4,13.85-28.83,5.36-9.82,13-17.94,21.64-25.08,3.21-2.66,6.39-2.71,8.65-.25,2.41,2.63,2.07,5.94-1.28,8.77C447,262.2,437,286.26,433.49,313.63c-.35,2.72-.6,5.45-.87,8.18a5.72,5.72,0,0,0,.08,1.09c.28,0,.6.16.71.06,16-14.5,30.24-30.39,39.95-49.94,8.89-17.89,10.51-36.63,7.1-56.09-5-28.57-16.26-54.53-32.23-78.58-.48-.73-1-1.44-1.42-2.2-1.73-3.05-1.13-6.16,1.48-7.9a5.43,5.43,0,0,1,7.84,1.7q5.7,8.56,10.94,17.41c2.59,4.39,4.83,9,7.44,13.89L479,158a220.47,220.47,0,0,1,44-24.51c5.48-2.23,7.88-1.17,10.15,4.35,6.66,16.23,9.32,33.28,10.27,50.67.07,1.23.18,2.46.3,4,5.81-1.65,11.37-3.33,17-4.81,15.93-4.2,32-7.29,48.55-8.2,3.5-.19,6.34.36,8.55,3.16Zm-11.26.92c-3.55.28-5.8.36-8,.65a295.63,295.63,0,0,0-102.3,33.61c-2.31,1.25-3.05,2.64-2.89,5.25,1.08,17.73-3,34.36-11.18,50-9.16,17.58-21.86,32.38-36.09,46a45.93,45.93,0,0,1-4.05,3.13l.86,1.73c14-1.93,28.11-3.32,42-5.93,20.15-3.78,39.18-10.85,55.42-23.79,28.48-22.69,47.73-51.92,59.58-86.13C602.56,207.9,604.23,199.75,606.54,191.15Zm-82.61-45.72a213.4,213.4,0,0,0-44.06,26L492.3,213.9c12.49-5.4,25.38-10.92,38.2-16.62a4,4,0,0,0,1.66-3.11c.06-3.6-.15-7.22-.43-10.82C530.74,170.52,528.59,157.93,523.93,145.43Zm-195.58,0C322.56,161,320.64,176.84,320,193c-.11,2.7.76,3.82,3.23,4.89,11.63,5,23.15,10.37,34.71,15.58.75.34,1.53.6,1.82.72,4.2-14.36,8.32-28.48,12.52-42.85A218.86,218.86,0,0,0,328.35,145.41ZM256,308.12c1.43,1.05,1.9,1.44,2.4,1.75,15.59,9.68,31.66,18.41,48.83,25,26.14,10,53,14.84,81,10.39,4.37-.69,8.65-1.92,13-2.9-7.13-1.39-14.07-2.12-21-3.08-34.67-4.84-66.21-16.37-91-42.5a3.59,3.59,0,0,0-3.08-1C276.31,299.69,266.57,303.75,256,308.12Z" transform="translate(-126.24 -70.39)"/><path class="cls-1" d="M432.1,76.22a6,6,0,1,1-11.92,0,6,6,0,0,1,11.92,0Z" transform="translate(-126.24 -70.39)"/><rect class="cls-1" x="212.99" y="427.9" width="173.86" height="11.91" rx="5.95"/><text class="cls-2" transform="translate(0 392.71)"><tspan class="cls-3">Ф</tspan><tspan x="87.38" y="0">ЕМФІ</tspan><tspan class="cls-4" x="340.04" y="0">Т</tspan><tspan x="394.58" y="0" xml:space="preserve"> ПРО</tspan></text></svg>